{
  "source": "C:\\Users\\Peter\\Desktop\\stuff\\MIUN\\quantitative_research\\video_compression\\videos\\HEVC_CLASS_B\\ParkScene_1920x1080_24.y4m",
  "output": "C:\\Users\\Peter\\Desktop\\stuff\\MIUN\\quantitative_research\\video_compression\\compressed_videos\\HEVC_CLASS_B\\h264\\2\\ParkScene_1920x1080_24_h264.mp4",
  "codec": "h264",
  "ok": "Input #0, yuv4mpegpipe, from 'C:\\Users\\Peter\\Desktop\\stuff\\MIUN\\quantitative_research\\video_compression\\videos\\HEVC_CLASS_B\\ParkScene_1920x1080_24.y4m':\n  Duration: 00:00:10.00, start: 0.000000, bitrate: 597198 kb/s\n  Stream #0:0: Video: rawvideo (I420 / 0x30323449), yuv420p(progressive), 1920x1080, 24 fps, 24 tbr, 24 tbn\n[out#0/mp4 @ 00000245a4cd9880] Codec AVOption b:a (set bitrate (in bits/s)) has not been used for any stream. The most likely reason is either wrong type (e.g. a video option with no video streams) or that it is a private option of some decoder which was not actually used for any stream.\nStream mapping:\n  Stream #0:0 -> #0:0 (rawvideo (native) -> h264 (libx264))\nPress [q] to stop, [?] for help\n[libx264 @ 00000245a4cdc8c0] using cpu capabilities: MMX2 SSE2Fast SSSE3 SSE4.2 AVX FMA3 BMI2 AVX2\n[libx264 @ 00000245a4cdc8c0] profile High, level 5.0, 4:2:0, 8-bit\n[libx264 @ 00000245a4cdc8c0] 264 - core 165 r3222 b35605a - H.264/MPEG-4 AVC codec - Copyleft 2003-2025 - http://www.videolan.org/x264.html - options: cabac=1 ref=5 deblock=1:0:0 analyse=0x3:0x113 me=hex subme=8 psy=1 psy_rd=1.00:0.00 mixed_ref=1 me_range=16 chroma_me=1 trellis=2 8x8dct=1 cqm=0 deadzone=21,11 fast_pskip=1 chroma_qp_offset=-2 threads=18 lookahead_threads=3 sliced_threads=0 nr=0 decimate=1 interlaced=0 bluray_compat=0 constrained_intra=0 bframes=3 b_pyramid=2 b_adapt=1 b_bias=0 direct=3 weightb=1 open_gop=0 weightp=2 keyint=250 keyint_min=24 scenecut=40 intra_refresh=0 rc_lookahead=50 rc=cbr mbtree=1 bitrate=2000 ratetol=1.0 qcomp=0.60 qpmin=0 qpmax=69 qpstep=4 vbv_maxrate=2000 vbv_bufsize=2000 nal_hrd=none filler=0 ip_ratio=1.40 aq=1:1.00\nOutput #0, mp4, to 'C:\\Users\\Peter\\Desktop\\stuff\\MIUN\\quantitative_research\\video_compression\\compressed_videos\\HEVC_CLASS_B\\h264\\2\\ParkScene_1920x1080_24_h264.mp4':\n  Metadata:\n    encoder         : Lavf62.3.100\n  Stream #0:0: Video: h264 (avc1 / 0x31637661), yuv420p(tv, progressive), 1920x1080, q=2-31, 2000 kb/s, 24 fps, 12288 tbn\n    Metadata:\n      encoder         : Lavc62.11.100 libx264\n    Side data:\n      cpb: bitrate max/min/avg: 2000000/0/2000000 buffer size: 2000000 vbv_delay: N/A\nframe=    0 fps=0.0 q=0.0 size=       0KiB time=N/A bitrate=N/A speed=N/A elapsed=0:00:00.51    \nframe=    0 fps=0.0 q=0.0 size=       0KiB time=N/A bitrate=N/A speed=N/A elapsed=0:00:01.03    \nframe=   18 fps= 12 q=36.0 size=       0KiB time=00:00:00.66 bitrate=   0.6kbits/s speed=0.431x elapsed=0:00:01.54    \nframe=   40 fps= 19 q=37.0 size=     256KiB time=00:00:01.58 bitrate=1324.8kbits/s speed=0.768x elapsed=0:00:02.06    \nframe=   58 fps= 22 q=37.0 size=     256KiB time=00:00:02.29 bitrate= 915.3kbits/s speed=0.887x elapsed=0:00:02.58    \nframe=   77 fps= 25 q=37.0 size=     512KiB time=00:00:03.12 bitrate=1342.3kbits/s speed=1.01x elapsed=0:00:03.10    \nframe=   98 fps= 27 q=37.0 size=     512KiB time=00:00:03.95 bitrate=1059.7kbits/s speed=1.09x elapsed=0:00:03.61    \nframe=  119 fps= 29 q=37.0 size=     768KiB time=00:00:04.79 bitrate=1313.1kbits/s speed=1.16x elapsed=0:00:04.14    \nframe=  141 fps= 30 q=36.0 size=    1024KiB time=00:00:05.79 bitrate=1448.5kbits/s speed=1.24x elapsed=0:00:04.66    \nframe=  164 fps= 32 q=36.0 size=    1024KiB time=00:00:06.75 bitrate=1242.8kbits/s speed= 1.3x elapsed=0:00:05.19    \nframe=  183 fps= 32 q=36.0 size=    1280KiB time=00:00:07.54 bitrate=1390.4kbits/s speed=1.32x elapsed=0:00:05.71    \nframe=  205 fps= 33 q=36.0 size=    1536KiB time=00:00:08.45 bitrate=1487.7kbits/s speed=1.36x elapsed=0:00:06.23    \nframe=  229 fps= 34 q=-1.0 size=    1536KiB time=00:00:09.45 bitrate=1330.4kbits/s speed= 1.4x elapsed=0:00:06.74    \n[mp4 @ 00000245a4cd9980] Starting second pass: moving the moov atom to the beginning of the file\n[out#0/mp4 @ 00000245a4cd9880] video:1817KiB audio:0KiB subtitle:0KiB other streams:0KiB global headers:0KiB muxing overhead: 0.201398%\nframe=  240 fps= 35 q=-1.0 Lsize=    1821KiB time=00:00:09.91 bitrate=1504.3kbits/s speed=1.44x elapsed=0:00:06.89    \n[libx264 @ 00000245a4cdc8c0] frame I:1     Avg QP:34.29  size: 74599\n[libx264 @ 00000245a4cdc8c0] frame P:60    Avg QP:34.67  size: 19131\n[libx264 @ 00000245a4cdc8c0] frame B:179   Avg QP:40.92  size:  3563\n[libx264 @ 00000245a4cdc8c0] consecutive B-frames:  0.4%  0.0%  1.2% 98.3%\n[libx264 @ 00000245a4cdc8c0] mb I  I16..4: 25.6% 63.5% 10.9%\n[libx264 @ 00000245a4cdc8c0] mb P  I16..4:  0.3%  1.2%  0.1%  P16..4: 35.9%  8.7%  6.3%  0.0%  0.0%    skip:47.6%\n[libx264 @ 00000245a4cdc8c0] mb B  I16..4:  0.0%  0.0%  0.0%  B16..8: 41.7%  1.0%  0.1%  direct: 0.3%  skip:56.9%  L0:39.0% L1:60.4% BI: 0.5%\n[libx264 @ 00000245a4cdc8c0] 8x8 transform intra:69.0% inter:62.9%\n[libx264 @ 00000245a4cdc8c0] direct mvs  spatial:94.4% temporal:5.6%\n[libx264 @ 00000245a4cdc8c0] coded y,uvDC,uvAC intra: 55.5% 41.8% 16.0% inter: 3.8% 2.9% 0.2%\n[libx264 @ 00000245a4cdc8c0] i16 v,h,dc,p: 36% 22%  5% 37%\n[libx264 @ 00000245a4cdc8c0] i8 v,h,dc,ddl,ddr,vr,hd,vl,hu: 10%  5%  4% 11% 16% 16% 14% 12% 12%\n[libx264 @ 00000245a4cdc8c0] i4 v,h,dc,ddl,ddr,vr,hd,vl,hu:  9%  6%  4% 11% 15% 13% 14% 11% 16%\n[libx264 @ 00000245a4cdc8c0] i8c dc,h,v,p: 49% 27% 15% 10%\n[libx264 @ 00000245a4cdc8c0] Weighted P-Frames: Y:0.0% UV:0.0%\n[libx264 @ 00000245a4cdc8c0] ref P L0: 62.8% 15.3% 15.6%  3.2%  3.2%\n[libx264 @ 00000245a4cdc8c0] ref B L0: 94.2%  4.6%  1.0%  0.2%\n[libx264 @ 00000245a4cdc8c0] ref B L1: 97.9%  2.1%\n[libx264 @ 00000245a4cdc8c0] kb/s:1488.18\n",
  "seconds": 7.09362530708313,
  "probe_out": {}
}